<?xml version="1.0" encoding="UTF-8" standalone="no"?>
<!-- Generator: Adobe Illustrator 19.0.1, SVG Export Plug-In . SVG Version: 6.00 Build 0)  -->

<svg
   version="1.0"
   id="Layer_1"
   x="0px"
   y="0px"
   viewBox="0 0 440 150"
   enable-background="new 0 0 440 150"
   xml:space="preserve"
   sodipodi:docname="kahooot.svg"
   inkscape:version="1.3.2 (091e20e, 2023-11-25, custom)"
   xmlns:inkscape="http://www.inkscape.org/namespaces/inkscape"
   xmlns:sodipodi="http://sodipodi.sourceforge.net/DTD/sodipodi-0.dtd"
   xmlns="http://www.w3.org/2000/svg"
   xmlns:svg="http://www.w3.org/2000/svg"><defs
   id="defs5" /><sodipodi:namedview
   id="namedview5"
   pagecolor="#ffffff"
   bordercolor="#000000"
   borderopacity="0.25"
   inkscape:showpageshadow="2"
   inkscape:pageopacity="0.0"
   inkscape:pagecheckerboard="0"
   inkscape:deskcolor="#d1d1d1"
   inkscape:zoom="1.4559971"
   inkscape:cx="285.71485"
   inkscape:cy="23.695101"
   inkscape:window-width="1920"
   inkscape:window-height="1009"
   inkscape:window-x="1912"
   inkscape:window-y="-8"
   inkscape:window-maximized="1"
   inkscape:current-layer="g5" />
<g
   id="g5">
	<path
   fill="#FFFFFF"
   d="m 189.91233,56.159492 c -15.65856,0.251206 -29.13999,13.48143 -30.14482,29.391193 -0.92109,15.993495 11.80672,30.228545 28.38637,31.903265 16.66338,1.67471 30.14481,-11.55551 30.14481,-29.391198 0,-17.919416 -12.72781,-32.154467 -28.38636,-31.90326 z m 11.22057,33.075559 c -0.66989,8.289824 -5.8615,12.811549 -9.29466,13.146489 -8.62476,1.00483 -15.99349,-6.782584 -15.49108,-16.74712 0.50241,-9.964536 4.52172,-16.160969 12.64408,-16.32844 8.12234,-0.167472 13.06275,9.127179 12.14166,19.929071 z"
   id="path1"
   style="fill:#ffffff;stroke-width:0.837356" />
	<path
   fill="#FFFFFF"
   d="m 251.45799,57.750468 c -15.65856,-0.251207 -28.38637,13.983843 -28.38637,31.903261 0,17.919411 13.48144,31.065901 30.14482,29.391201 16.66338,-1.67472 29.39119,-15.90977 28.38636,-31.903269 -0.9211,-15.909763 -14.40253,-29.05625 -30.14481,-29.391193 z m -1.92592,46.305782 c -3.43317,-0.41868 -8.54103,-4.940399 -9.29465,-13.146488 -0.92109,-10.801891 4.0193,-20.096542 12.14166,-19.929071 8.12235,0.167472 12.14165,6.363906 12.64408,16.328441 0.50241,9.8808 -6.86633,17.751948 -15.49109,16.747118 z"
   id="path2"
   style="fill:#ffffff;stroke-width:0.837356" />
	<polygon
   fill="#FFFFFF"
   points="23.2,66.3 23.2,19.6 0,25.5 0,135.2 23.2,136 23,97.6 37.3,83.8 52.4,136 72.9,136 54,67.9 82.5,36.6 62.4,28.9 "
   id="polygon2"
   style="fill:#ffffff"
   transform="matrix(0.83735593,0,0,0.83735593,0,12.198305)" />
	<path
   fill="#FFFFFF"
   d="m 122.42144,53.396217 -0.33494,-41.197912 -16.57965,4.354252 2.67954,101.822483 16.32843,0.58614 -0.92109,-52.585946 c 3.60064,-1.590976 15.40736,-4.856664 15.82604,8.122353 l 1.59097,18.505565 1.08856,26.041778 h 17.08207 l -6.44765,-44.966021 c -2.5958,-26.292977 -12.2254,-26.376713 -30.31228,-20.682692 z"
   id="path3"
   style="fill:#ffffff;stroke-width:0.837356" />
	<polygon
   fill="#FFFFFF"
   points="428.6,128.2 415.2,128.2 409.5,141.6 421.7,150 433.7,142.9 "
   id="polygon3"
   style="fill:#ffffff"
   transform="matrix(0.83735593,0,0,0.83735593,70.876576,12.198305)" />
	<path
   fill="#FFFFFF"
   d="m 375.17172,28.610481 -12.97901,-5.359077 v 26.879125 l -14.48625,-0.502414 2.76327,19.091716 h 11.72298 l 0.83736,45.468429 c 0,0 -1.84219,16.32844 23.11101,12.64407 0,0 7.78742,-2.3446 7.53622,-7.7874 V 101.1255 c 0,0 -5.27535,3.09822 -10.96937,3.09822 -5.69403,0 -5.77776,-2.76327 -5.77776,-2.76327 l -1.50724,-35.168952 18.17062,-1.004827 V 53.647424 l -18.67303,-1.256035 z"
   id="path4"
   style="fill:#ffffff;stroke-width:0.837356" />
	<polygon
   fill="#FFFFFF"
   points="399,12 424.2,120.5 440,19.8 "
   id="polygon4"
   style="fill:#ffffff"
   transform="matrix(0.83735593,0,0,0.83735593,70.876576,12.198305)" />
	<path
   fill="#FFFFFF"
   d="m 64.97882,53.982366 4.521722,11.890454 c 11.304305,-6.782582 17.668211,0 17.668211,0 l -0.08373,7.61994 c -33.661712,5.945226 -25.120682,37.09486 -25.120682,37.09486 3.433159,12.2254 14.486258,11.80672 14.486258,11.80672 h 25.204411 l 0.50241,-56.68899 C 98.22185,39.328637 64.97882,53.982366 64.97882,53.982366 Z m 22.106197,57.526344 c 0,0 -12.225397,2.93075 -13.565166,-8.9597 0,0 0.251207,-18.42183 13.983843,-16.412177 z"
   id="path5"
   style="fill:#ffffff;stroke-width:0.837356" />
<path
   fill="#FFFFFF"
   d="m 315.54851,57.750468 c -15.65856,-0.251207 -28.38637,13.983843 -28.38637,31.903261 0,17.919411 13.48144,31.065901 30.14482,29.391201 16.66338,-1.67472 29.39119,-15.90977 28.38637,-31.903269 -0.9211,-15.909763 -14.40253,-29.05625 -30.14482,-29.391193 z m -1.92591,46.305782 c -3.43317,-0.41868 -8.54104,-4.940399 -9.29465,-13.146488 -0.9211,-10.801891 4.0193,-20.096542 12.14165,-19.929071 8.12236,0.167472 12.14166,6.363906 12.64408,16.328441 0.50241,9.8808 -6.86633,17.751948 -15.49108,16.747118 z"
   id="path6"
   style="fill:#ffffff;stroke-width:0.837356" /></g>
</svg>
